<svg id="_0107_target" xmlns="http://www.w3.org/2000/svg" xmlns:xlink="http://www.w3.org/1999/xlink" viewBox="0 0 500 500" data-imageid="target-64" imageName="Target" class="illustrations_image" style="width: 144px;"><defs><style>.cls-1_target-64{fill:url(#linear-gradient);}.cls-1_target-64,.cls-2_target-64,.cls-3_target-64,.cls-4_target-64,.cls-5_target-64,.cls-6_target-64,.cls-7_target-64,.cls-8_target-64,.cls-9_target-64,.cls-10_target-64,.cls-11_target-64,.cls-12_target-64{stroke-width:0px;}.cls-2_target-64{isolation:isolate;opacity:.18;}.cls-2_target-64,.cls-12_target-64{fill:#68e1fd;}.cls-3_target-64{fill:url(#linear-gradient-4-target-64);}.cls-4_target-64{fill:url(#linear-gradient-2-target-64);}.cls-5_target-64{fill:url(#linear-gradient-3-target-64);}.cls-6_target-64{fill:url(#linear-gradient-8-target-64);}.cls-7_target-64{fill:url(#linear-gradient-7-target-64);}.cls-8_target-64{fill:url(#linear-gradient-5-target-64);}.cls-9_target-64{fill:url(#linear-gradient-6-target-64);}.cls-10_target-64{fill:#3e3e54;}.cls-11_target-64{fill:#ffb4a3;}</style><linearGradient id="linear-gradient-target-64" x1="949.65" y1="1652.01" x2="848.5" y2="1506.2" gradientTransform="translate(-471 1784.53) scale(1 -1)" gradientUnits="userSpaceOnUse"><stop offset="0" stop-color="#000" stop-opacity="0"/><stop offset=".99" stop-color="#000"/></linearGradient><linearGradient id="linear-gradient-2-target-64" x1="867.33" y1="1446.31" x2="907.92" y2="1712.21" xlink:href="#linear-gradient-target-64"/><linearGradient id="linear-gradient-3-target-64" x1="883.01" y1="1487.17" x2="886.06" y2="1641.69" xlink:href="#linear-gradient-target-64"/><linearGradient id="linear-gradient-4-target-64" x1="665.34" y1="1583.68" x2="625.08" y2="1519.4" xlink:href="#linear-gradient-target-64"/><linearGradient id="linear-gradient-5-target-64" x1="602.01" y1="1582.53" x2="592.54" y2="1420.51" gradientTransform="translate(-471.11 1782.04) scale(1 -1)" xlink:href="#linear-gradient-target-64"/><linearGradient id="linear-gradient-6-target-64" x1="688.99" y1="1565.83" x2="721.08" y2="1569.75" gradientTransform="translate(-471.11 1782.04) scale(1 -1)" xlink:href="#linear-gradient-target-64"/><linearGradient id="linear-gradient-7-target-64" x1="592.23" y1="1550.99" x2="731.27" y2="1574" gradientTransform="translate(-471.11 1782.04) scale(1 -1)" xlink:href="#linear-gradient-target-64"/><linearGradient id="linear-gradient-8-target-64" x1="585.32" y1="1632.14" x2="603.92" y2="1618.6" gradientTransform="translate(-471.11 1782.04) scale(1 -1)" xlink:href="#linear-gradient-target-64"/></defs><path id="background_target-64" class="cls-2_target-64 targetColor" d="M327.7,424.23c19.66-1.07,39.52-2.47,58.35-8.22,18.83-5.74,36.79-16.24,48.08-32.41,15.53-22.22,16.42-51.59,28.95-75.66,7.98-15.29,20.6-28.32,25.69-44.83,8.97-29.08-7.54-59.18-12.84-89.15-1.39-7.83-2.07-16.04-5.98-22.93-4.32-7.64-12.01-12.76-19.81-16.8-31.53-16.24-67.51-18.97-101.98-24.37-34.3-5.38-65.92-13.43-97.71-27.39-19.68-8.6-42.22-15.54-62.29-7.89-8.17,3.11-15.29,8.43-22.93,12.66-17.62,9.67-35.12,10.23-54.11,14.71-21.57,5.07-39.51,23.1-44.45,44.66-5.51,24.02,4.16,49.12,1.47,73.57-5.31,48.43-57.08,85.23-53.2,133.75,2.87,35.93,37.63,70.51,73.9,70.01,49.42-.67,98.89,3.4,148.39,3.04,30.18-.23,60.35-1.15,90.49-2.75Z" style="fill: rgb(104, 225, 253);"/><path id="shadow_target-64" class="cls-2_target-64 targetColor" d="M450.58,210.13c0,30.05-9.09,55.48-21.62,64.12l-3.43,1.91-268.47,142.93s-4.29-5.32-10.81-14.6c-4.54-6.48-10.14-14.87-16.11-24.72l-5.68-71.15-6.75,49.21c-5.78-10.91-11-22.1-15.64-33.54l1.59-34.46c-5.22-.15-4.7-11.89-4.57-15.14.28-6.63.85-13.25,1.3-19.89.71-10.33,1.18-20.79-.29-31.08-.66-4.61-.72-9.29-.17-13.92.11-1.6.51-3.16,1.18-4.61,1-1.67,2.34-3.12,3.94-4.25,4.9-3.93,10.12-7.45,15.6-10.51-.16-1.1-.15-2.25-.25-3.34l-.63-7.23c-.43-4.87-.85-9.74-1.27-14.61-.2-1.59-.2-3.19,0-4.78.22-1.36.72-2.66,1.47-3.82,1.61-1.57,3.27-3.11,5.01-4.64,2.17-1.91,4.44-3.8,6.81-5.66l285.99-3.34,4.52.14c15.84,3,28.28,31.84,28.28,66.99Z" style="fill: rgb(104, 225, 253);"/><g id="target_target-64"><ellipse class="cls-12_target-64 targetColor" cx="424.81" cy="210.13" rx="31" ry="67.25" style="fill: rgb(104, 225, 253);"/><ellipse class="cls-1_target-64" cx="424.81" cy="210.13" rx="31" ry="67.25"/><path class="cls-12_target-64 targetColor" d="M450.58,210.13c0,30.05-9.09,55.48-21.62,64.12-1.07.76-2.22,1.4-3.43,1.91-1.88.82-3.91,1.25-5.96,1.25-17.12,0-31-30.11-31-67.26s12.93-65.13,29.22-67.14c.59-.08,1.19-.11,1.79-.11.92,0,1.83.09,2.73.26,15.84,2.98,28.28,31.82,28.28,66.97Z" style="fill: rgb(104, 225, 253);"/><ellipse class="cls-4_target-64" cx="415.9" cy="210.03" rx="22.29" ry="48.33"/><ellipse class="cls-12_target-64 targetColor" cx="414.42" cy="210.52" rx="16.15" ry="35.02" style="fill: rgb(104, 225, 253);"/><ellipse class="cls-5_target-64" cx="413.71" cy="211.01" rx="11.27" ry="24.46"/><ellipse class="cls-12_target-64 targetColor" cx="413.02" cy="211.58" rx="7.39" ry="16.01" style="fill: rgb(104, 225, 253);"/></g><g id="character_target-64"><polygon class="cls-12_target-64 targetColor" points="154.04 203.58 179.98 211.7 219.95 204.26 221.72 218.77 184.59 231.15 154.52 228.32 154.04 203.58" style="fill: rgb(104, 225, 253);"/><polygon class="cls-3_target-64" points="154.04 203.58 179.98 211.7 219.95 204.26 221.72 218.77 184.59 231.15 154.52 228.32 154.04 203.58"/><path class="cls-12_target-64 targetColor" d="M100.1,223.72c-.65-4.61-.71-9.29-.17-13.92.12-1.6.52-3.16,1.19-4.61,1-1.67,2.34-3.12,3.93-4.25,5.01-4.04,10.36-7.64,15.98-10.78,3,2.92,7.84,4.35,11.66,2.62,1.17-.54-.35-2.77.96-2.68.96.07,4.46,2.06,5.25,2.57l8.7,5.52c2.38,1.52,4.83,3.09,6.46,5.4,1.34,2.1,2.23,4.45,2.62,6.91,2.05,10.25.81,20.84-.43,31.21-.96,8.35.19,16.7.63,25.04.41,7.64.61,15.29-5.19,21.14-1.01,1.09-2.25,1.95-3.62,2.52-1.44.45-2.94.66-4.44.64-13.57.52-26.22-1.2-39.83-1.2-5.33,0-4.78-11.87-4.67-15.15.28-6.64.85-13.26,1.3-19.89.68-10.34,1.12-20.78-.32-31.08Z" style="fill: rgb(104, 225, 253);"/><path class="cls-8_target-64" d="M156.86,266.74c.4,7.64.6,15.29-5.21,21.15-1.01,1.08-2.24,1.94-3.61,2.51-.16.06-.33.12-.5.16-1.29.32-2.62.48-3.95.48-13.57.52-26.21-1.21-39.84-1.21h-.1c-5.22-.15-4.7-11.89-4.57-15.14.28-6.63.85-13.25,1.3-19.89.71-10.33,1.18-20.79-.29-31.08-.66-4.61-.72-9.29-.17-13.92.11-1.6.51-3.16,1.18-4.61,1-1.67,2.34-3.12,3.94-4.25,4.9-3.93,10.12-7.45,15.6-10.51l.38-.22c3,2.92,7.83,4.35,11.66,2.62.39-.17.41-.29.33-.33h1.61c1.57-.06,3.67-.11,4.21.24l8.69,5.52c2.39,1.52,4.84,3.1,6.47,5.4,1.34,2.1,2.23,4.45,2.62,6.91,2.04,10.25.81,20.83-.42,31.21-.97,8.28.2,16.64.66,24.97Z"/><polygon class="cls-10_target-64" points="147.58 287.63 147.55 290.57 146.39 404.45 146.24 404.47 132.24 406.21 130.13 379.74 124.47 308.6 117.72 357.82 111.02 406.56 98.29 406.56 102.08 324.29 103.67 289.82 103.77 287.63 147.58 287.63"/><path class="cls-10_target-64" d="M97.1,409.72c-1.43.88-3.04,1.46-4.52,2.25-1.94,1.03-3.67,2.4-5.1,4.06-.52.55-.93,1.2-1.19,1.91-.27.71-.2,1.5.18,2.16.7,1.04,2.16,1.15,3.41,1.15h5.82c1.77.07,3.54-.08,5.27-.46,1.75-.39,3.28-1.43,4.29-2.91l.25,1.53c.01.17.08.32.2.44.12.07.26.1.4.08.64,0,1.28-.07,1.91-.17.3-.03.59-.13.84-.31.25-.23.42-.54.49-.87.55-2.16.75-4.38.61-6.6l-.06-4.59c0-.63-.1-1.39-.67-1.66-.25-.1-.51-.14-.77-.11h-4.16c-1.05-.12-2.11-.05-3.13.22-.61.35-1.1.85-1.44,1.46-.7.98-1.6,1.8-2.63,2.43Z"/><path class="cls-10_target-64" d="M146.45,408.71c1.43.88,3.04,1.46,4.53,2.25,1.94,1.03,3.67,2.4,5.1,4.06.52.56.92,1.2,1.19,1.91.27.71.2,1.51-.19,2.16-.7,1.04-2.16,1.15-3.41,1.15h-5.81c-1.77.07-3.55-.09-5.28-.46-1.75-.39-3.28-1.43-4.28-2.91l-.26,1.53c0,.16-.08.31-.19.43-.12.08-.27.11-.41.09-.64-.01-1.28-.07-1.91-.17-.68,0-1.25-.5-1.34-1.18-.55-2.16-.75-4.39-.61-6.61,0-1.53,0-3.06.07-4.58,0-.63.1-1.39.66-1.66.25-.1.52-.14.78-.11l4.16.05c1.05-.12,2.11-.05,3.13.22.6.35,1.09.85,1.43,1.45.71.96,1.61,1.77,2.64,2.39Z"/><path class="cls-12_target-64 targetColor" d="M100.1,223.72l24.16,26.46c2.13,2.34,5.43,3.2,8.43,2.22l40.81-13.47-2.87-12.02-29.79,6.33c-3.04.65-6.16-.73-7.72-3.42l-15.07-25.9s-16.84-12.04-17.96,19.8Z" style="fill: rgb(104, 225, 253);"/><path class="cls-11_target-64" d="M227.3,195.95c.26-.43,1.09-.22,1.52,0,.27.85.49,1.72.65,2.6.44.96,0,2.28.75,3.06.36.33.83.52,1.32.52.49,0,.97-.05,1.45-.11,1.15-.1,3.56-.23,4.12,1.05.12.41.18.84.2,1.27.3,1.38,2.11,2.38,1.68,3.72-.14.43-.51.77-.58,1.22.02.49.12.96.31,1.41.15.91-.22,1.82-.96,2.37-.74.52-1.62.82-2.53.86-.32,0-.65.06-.96.16-.26.14-.5.3-.73.48-1.39.96-3.23.65-4.9.5-1.78-.15-3.56-.11-5.33.12-1.56.22-3.32.53-4.55-.45s-1.29-3.14-.67-4.73c.96-2.14,2.62-3.89,4.7-4.97,1.03-.54,4.24-8.65,4.5-9.08Z"/><path class="cls-12_target-64 targetColor" d="M185.76,135.9c-1.24,1.32-1.93,3.08-1.91,4.89.1.83.48,1.61,1.08,2.19.67.57,1.41,1.05,2.2,1.44,3.24,1.7,6.51,3.53,9.63,5.56,6.29,4.08,12,8.99,16.98,14.6,1.2,1.43,2.43,2.87,3.61,4.32l3.34,4.55c1.04,1.56,2.01,3.17,3.01,4.78l.75,1.19.67,1.24,1.32,2.48,1.33,2.49,1.16,2.57c.75,1.72,1.58,3.41,2.23,5.18,1.25,3.53,2.61,7.01,3.56,10.73,1.85,7.37,2.58,14.97,2.18,22.56-.15,3.77-.55,7.53-1.2,11.25-.63,3.7-1.44,7.36-2.45,10.98-4.02,14.37-10.43,27.96-18.96,40.21v-.07c-.61,1.08-1.11,2.22-1.5,3.4-.42,1.14-.56,2.37-.42,3.57.04.29.12.57.24.84.13.26.29.51.47.75.38.5.82.95,1.31,1.34.99.82,2.19,1.34,3.46,1.52-1.32-.03-2.61-.43-3.72-1.16-.56-.36-1.08-.78-1.55-1.26-.25-.26-.47-.54-.66-.84-.16-.3-.29-.62-.39-.96-.3-1.35-.27-2.75.08-4.09.29-1.32.73-2.6,1.31-3.82v-.08c1.91-3.1,3.55-6.38,5.18-9.65s3.11-6.62,4.47-10c2.79-6.72,5.06-13.64,6.8-20.7.89-3.52,1.6-7.08,2.12-10.67.14-.9.26-1.79.34-2.68s.23-1.79.31-2.68c.13-1.8.32-3.58.34-5.38s.05-3.59,0-5.38c0-.9-.1-1.79-.14-2.68s-.11-1.79-.22-2.68c-.34-3.54-.93-7.05-1.77-10.51-.85-3.44-2.15-6.84-3.32-10.26-.27-.87-.68-1.67-1.01-2.51l-1.04-2.49-1.04-2.5-1.21-2.42c-3.15-6.51-7.03-12.63-11.57-18.26-1.16-1.39-2.37-2.73-3.55-4.1s-2.49-2.63-3.82-3.91c-2.62-2.51-5.38-4.88-8.27-7.08-2.87-2.24-5.95-4.21-9.05-6.26-.82-.52-1.57-1.13-2.25-1.82-.67-.77-1.04-1.75-1.05-2.77.03-.97.31-1.91.81-2.74.48-.82,1.09-1.57,1.8-2.22Z" style="fill: rgb(104, 225, 253);"/><path class="cls-9_target-64" d="M185.76,135.9c-1.24,1.32-1.93,3.08-1.91,4.89.1.83.48,1.61,1.08,2.19.67.57,1.41,1.05,2.2,1.44,3.24,1.7,6.51,3.53,9.63,5.56,6.29,4.08,12,8.99,16.98,14.6,1.2,1.43,2.43,2.87,3.61,4.32l3.34,4.55c1.04,1.56,2.01,3.17,3.01,4.78l.75,1.19.67,1.24,1.32,2.48,1.33,2.49,1.16,2.57c.75,1.72,1.58,3.41,2.23,5.18,1.25,3.53,2.61,7.01,3.56,10.73,1.85,7.37,2.58,14.97,2.18,22.56-.15,3.77-.55,7.53-1.2,11.25-.63,3.7-1.44,7.36-2.45,10.98-4.02,14.37-10.43,27.96-18.96,40.21v-.07c-.61,1.08-1.11,2.22-1.5,3.4-.42,1.14-.56,2.37-.42,3.57.04.29.12.57.24.84.13.26.29.51.47.75.38.5.82.95,1.31,1.34.99.82,2.19,1.34,3.46,1.52-1.32-.03-2.61-.43-3.72-1.16-.56-.36-1.08-.78-1.55-1.26-.25-.26-.47-.54-.66-.84-.16-.3-.29-.62-.39-.96-.3-1.35-.27-2.75.08-4.09.29-1.32.73-2.6,1.31-3.82v-.08c1.91-3.1,3.55-6.38,5.18-9.65s3.11-6.62,4.47-10c2.79-6.72,5.06-13.64,6.8-20.7.89-3.52,1.6-7.08,2.12-10.67.14-.9.26-1.79.34-2.68s.23-1.79.31-2.68c.13-1.8.32-3.58.34-5.38s.05-3.59,0-5.38c0-.9-.1-1.79-.14-2.68s-.11-1.79-.22-2.68c-.34-3.54-.93-7.05-1.77-10.51-.85-3.44-2.15-6.84-3.32-10.26-.27-.87-.68-1.67-1.01-2.51l-1.04-2.49-1.04-2.5-1.21-2.42c-3.15-6.51-7.03-12.63-11.57-18.26-1.16-1.39-2.37-2.73-3.55-4.1s-2.49-2.63-3.82-3.91c-2.62-2.51-5.38-4.88-8.27-7.08-2.87-2.24-5.95-4.21-9.05-6.26-.82-.52-1.57-1.13-2.25-1.82-.67-.77-1.04-1.75-1.05-2.77.03-.97.31-1.91.81-2.74.48-.82,1.09-1.57,1.8-2.22Z"/><path class="cls-12_target-64 targetColor" d="M212.98,289.02c-.23-.4-22.74-40.32-30.16-57.84-3.15-7.45-3.02-23.96.41-49.08,2.55-18.64,6.06-35.35,6.1-35.5l1.36.29c-.14.67-13.91,66.47-6.59,83.75,7.39,17.46,29.87,57.32,30.09,57.71l-1.2.68Z" style="fill: rgb(104, 225, 253);"/><path class="cls-7_target-64" d="M212.98,289.02c-.23-.4-22.74-40.32-30.16-57.84-3.15-7.45-3.02-23.96.41-49.08,2.55-18.64,6.06-35.35,6.1-35.5l1.36.29c-.14.67-13.91,66.47-6.59,83.75,7.39,17.46,29.87,57.32,30.09,57.71l-1.2.68Z"/><rect class="cls-10_target-64" x="181" y="204.7" width="100.65" height="1.39" transform="translate(-59.29 99.38) rotate(-21.56)"/><polygon class="cls-12_target-64 targetColor" points="273.94 183.07 289.32 183.07 276.41 193.33 277.65 186.96 273.94 183.07" style="fill: rgb(104, 225, 253);"/><path class="cls-11_target-64" d="M177.33,222.76c.68.11,1.31.38,1.98.54.89.23,1.82.25,2.72.08,1.07-.21,2.36-.63,3.1.17s.17,2.13-.11,3.22c-.16.65-.21,1.32-.4,1.91-.28.78-.66,1.51-1.15,2.18-1.7,2.57-3.75,5.38-6.8,5.87-2.25.35-4.47-.68-6.5-1.7-.89-.34-1.65-.95-2.17-1.75-.61-1.2-.05-2.68.77-3.76,2-2.58,4.55-7.36,8.56-6.75Z"/><path class="cls-11_target-64" d="M230.52,200.4c-1.23.59-2.21,1.61-2.76,2.87-.09.21-.11.45-.06.67.07.15.18.29.32.38.93.5,2.03.57,3.03.22,1.5-.35,2.98-.81,4.41-1.39.35-.11.68-.29.96-.54.42-.58.5-1.34.2-1.99-1.15-3.12-4.08-1.32-6.1-.23Z"/><path class="cls-11_target-64" d="M230.22,206.33c-.24.12-.42.34-.5.6,0,.46.56.67,1.02.71,1.79.14,3.58.14,5.37,0-1.07.12-2.15.15-3.22.11-1.09-.03-2.13.45-2.82,1.3-.08.11-.12.25-.13.38.03.19.13.36.28.48.93.88,2.2,1.31,3.48,1.19-.96-.1-1.91-.17-2.87-.24-.24-.04-.48,0-.69.13-.22.24-.22.61,0,.85.22.23.49.4.79.49,1.33.63,2.81.88,4.28.73,1.5-.18,2.7-1.32,2.97-2.8-.01-.5.01-1,.08-1.49.09-.35.29-.67.34-1.03.14-.8-.42-1.63-.2-2.43.06-.13.08-.28.06-.43-.06-.12-.16-.22-.29-.27-2.34-1.09-5.99.5-7.96,1.71Z"/><path class="cls-11_target-64" d="M149,177.08c-2.3,2.87-1.66,7.64-4.78,9.66-2.06,1.31-4.78.61-7.18.54-.7-.1-1.41.14-1.91.65-.24.4-.35.86-.33,1.33-.06,1.05-.11,2.09-.15,3.15s-.12,2.35-.18,3.53c.02.56-.12,1.12-.41,1.6-.85,1.16-2.4.9-3.6.59-3.26-.84-6.69-2.07-8.69-4.78-.63-.89-1.02-1.92-1.12-3.01-.16-1.1-.15-2.25-.25-3.34l-.63-7.23c-.43-4.87-.85-9.74-1.27-14.61-.2-1.59-.2-3.19,0-4.78.22-1.36.72-2.66,1.47-3.82,1.26-1.94,2.98-3.53,5.01-4.64.48-.27.96-.51,1.47-.73,3.89-1.66,8.23-1.91,12.42-1.96,6.22-.07,7.17,3.82,8.48,9.09.49,2.02.86,4.06,1.42,6.06.73,2.67,3.2,4.83,3.76,7.34.52,2.25-2.12,3.64-3.53,5.37Z"/><path class="cls-10_target-64" d="M144.79,156.18c-1.47,1.18-3.28,1.91-4.78,2.99-.91.81-1.87,1.56-2.87,2.25-1.64.96-3.89,1.23-4.71,2.93-.28.71-.4,1.48-.36,2.25l-.06,4.85c0,.42-.17.96-.59.96-.22,0-.37-.24-.49-.43l-.96-1.6c-.45-.73-1.13-1.55-1.91-1.37-.24.06-.46.17-.64.33-1.91,1.53-1.71,4.89.22,6.41.34.22.64.49.9.8.31.6.31,1.31,0,1.91-.77,1.73-2.65,2.66-3.98,3.99-.36.44-.79.8-1.28,1.09-1.01.36-2.13.03-2.79-.81-.63-.84-1.06-1.8-1.28-2.82-1.91-6.27-3.23-12.7-3.94-19.21-.26-1.63-.11-3.3.43-4.86.61-1.58,2.2-2.56,3.88-2.39.08-2.63,2.17-4.84,4.58-5.89s5.1-1.14,7.73-1.21l14.61-.43c.57-.07,1.14.03,1.65.29.87.56.13,3.94-.09,4.87-.49,2.02-1.64,3.81-3.28,5.09Z"/><path class="cls-6_target-64" d="M144.79,156.18c-1.47,1.18-3.28,1.91-4.78,2.99-.91.81-1.87,1.56-2.87,2.25-1.64.96-3.89,1.23-4.71,2.93-.28.71-.4,1.48-.36,2.25l-.06,4.85c0,.42-.17.96-.59.96-.22,0-.37-.24-.49-.43l-.96-1.6c-.45-.73-1.13-1.55-1.91-1.37-.24.06-.46.17-.64.33-1.91,1.53-1.71,4.89.22,6.41.34.22.64.49.9.8.31.6.31,1.31,0,1.91-.77,1.73-2.65,2.66-3.98,3.99-.36.44-.79.8-1.28,1.09-1.01.36-2.13.03-2.79-.81-.63-.84-1.06-1.8-1.28-2.82-1.91-6.27-3.23-12.7-3.94-19.21-.26-1.63-.11-3.3.43-4.86.61-1.58,2.2-2.56,3.88-2.39.08-2.63,2.17-4.84,4.58-5.89s5.1-1.14,7.73-1.21l14.61-.43c.57-.07,1.14.03,1.65.29.87.56.13,3.94-.09,4.87-.49,2.02-1.64,3.81-3.28,5.09Z"/></g></svg>